<svg width="17" height="17" viewBox="0 0 17 17" fill="none" xmlns="http://www.w3.org/2000/svg">
<path d="M15.5824 4.04537V10.8312C15.5824 12.7862 13.9958 14.3729 12.0408 14.3729H4.95742C4.63158 14.3729 4.31992 14.3304 4.01533 14.2454C3.57617 14.125 3.4345 13.5654 3.76033 13.2395L11.2899 5.70996C11.4457 5.55412 11.6795 5.51871 11.8991 5.56121C12.1257 5.60371 12.3737 5.53996 12.5507 5.36996L14.3712 3.54246C15.037 2.87662 15.5824 3.09621 15.5824 4.04537Z" fill="#FFD972"/>
<path d="M10.3654 5.21414L2.94919 12.6304C2.60919 12.9704 2.04253 12.8854 1.81586 12.4604C1.55378 11.9787 1.41211 11.4191 1.41211 10.8312V4.04539C1.41211 3.09622 1.95753 2.87664 2.62336 3.54247L4.45086 5.37706C4.72711 5.64622 5.18044 5.64622 5.45669 5.37706L7.99252 2.83414C8.26877 2.55789 8.72211 2.55789 8.99836 2.83414L10.3725 4.20831C10.6417 4.48456 10.6417 4.93789 10.3654 5.21414Z" fill="#FFD972"/>
</svg>
